<svg width="192" height="192" viewBox="0 0 192 192" fill="none" xmlns="http://www.w3.org/2000/svg">
<g opacity="0.1">
<rect width="58.6667" height="58.6562" rx="2" fill="#0C0D18"/>
<path d="M20.9334 39.8281L18.8334 37.7281L27.2334 29.3281L18.8334 20.9281L20.9334 18.8281L29.3334 27.2281L37.7334 18.8281L39.8334 20.9281L31.4334 29.3281L39.8334 37.7281L37.7334 39.8281L29.3334 31.4281L20.9334 39.8281V39.8281" fill="#AEC6FF"/>
<rect x="66.6666" width="58.6667" height="58.6562" rx="2" fill="#0C0D18"/>
<rect x="133.333" width="58.6667" height="58.6562" rx="2" fill="#0C0D18"/>
<path d="M162.667 44.3281C160.592 44.3281 158.642 43.9344 156.817 43.1469C154.992 42.3594 153.404 41.2906 152.054 39.9406C150.704 38.5906 149.635 37.0031 148.848 35.1781C148.06 33.3531 147.667 31.4031 147.667 29.3281C147.667 27.2531 148.06 25.3031 148.848 23.4781C149.635 21.6531 150.704 20.0656 152.054 18.7156C153.404 17.3656 154.992 16.2969 156.817 15.5094C158.642 14.7219 160.592 14.3281 162.667 14.3281C164.742 14.3281 166.692 14.7219 168.517 15.5094C170.342 16.2969 171.929 17.3656 173.279 18.7156C174.629 20.0656 175.698 21.6531 176.485 23.4781C177.273 25.3031 177.667 27.2531 177.667 29.3281C177.667 31.4031 177.273 33.3531 176.485 35.1781C175.698 37.0031 174.629 38.5906 173.279 39.9406C171.929 41.2906 170.342 42.3594 168.517 43.1469C166.692 43.9344 164.742 44.3281 162.667 44.3281V44.3281M162.667 41.3281C166.017 41.3281 168.854 40.1656 171.179 37.8406C173.504 35.5156 174.667 32.6781 174.667 29.3281C174.667 25.9781 173.504 23.1406 171.179 20.8156C168.854 18.4906 166.017 17.3281 162.667 17.3281C159.317 17.3281 156.479 18.4906 154.154 20.8156C151.829 23.1406 150.667 25.9781 150.667 29.3281C150.667 32.6781 151.829 35.5156 154.154 37.8406C156.479 40.1656 159.317 41.3281 162.667 41.3281V41.3281M162.667 29.3281V29.3281V29.3281V29.3281V29.3281V29.3281V29.3281V29.3281V29.3281V29.3281" fill="#FFB2BC"/>
<rect y="66.6562" width="58.6667" height="58.6719" rx="2" fill="#0C0D18"/>
<rect x="66.6666" y="66.6562" width="58.6667" height="58.6719" rx="2" fill="#0C0D18"/>
<path d="M87.6 106.492L85.5 104.392L93.9 95.9921L85.5 87.5921L87.6 85.4921L96 93.8921L104.4 85.4921L106.5 87.5921L98.1 95.9921L106.5 104.392L104.4 106.492L96 98.0921L87.6 106.492V106.492" fill="#AEC6FF"/>
<rect x="133.333" y="66.6562" width="58.6667" height="58.6719" rx="2" fill="#0C0D18"/>
<rect y="133.328" width="58.6667" height="58.6719" rx="2" fill="#0C0D18"/>
<rect x="66.6666" y="133.328" width="58.6667" height="58.6719" rx="2" fill="#0C0D18"/>
<rect x="133.333" y="133.328" width="58.6667" height="58.6719" rx="2" fill="#0C0D18"/>
<path d="M162.667 177.664C160.592 177.664 158.642 177.27 156.817 176.483C154.992 175.695 153.404 174.627 152.054 173.277C150.704 171.927 149.635 170.339 148.848 168.514C148.06 166.689 147.667 164.739 147.667 162.664C147.667 160.589 148.06 158.639 148.848 156.814C149.635 154.989 150.704 153.402 152.054 152.052C153.404 150.702 154.992 149.633 156.817 148.845C158.642 148.058 160.592 147.664 162.667 147.664C164.742 147.664 166.692 148.058 168.517 148.845C170.342 149.633 171.929 150.702 173.279 152.052C174.629 153.402 175.698 154.989 176.485 156.814C177.273 158.639 177.667 160.589 177.667 162.664C177.667 164.739 177.273 166.689 176.485 168.514C175.698 170.339 174.629 171.927 173.279 173.277C171.929 174.627 170.342 175.695 168.517 176.483C166.692 177.27 164.742 177.664 162.667 177.664V177.664M162.667 174.664C166.017 174.664 168.854 173.502 171.179 171.177C173.504 168.852 174.667 166.014 174.667 162.664C174.667 159.314 173.504 156.477 171.179 154.152C168.854 151.827 166.017 150.664 162.667 150.664C159.317 150.664 156.479 151.827 154.154 154.152C151.829 156.477 150.667 159.314 150.667 162.664C150.667 166.014 151.829 168.852 154.154 171.177C156.479 173.502 159.317 174.664 162.667 174.664V174.664M162.667 162.664V162.664V162.664V162.664V162.664V162.664V162.664V162.664V162.664V162.664" fill="#FFB2BC"/>
</g>
</svg>
